<svg xmlns="http://www.w3.org/2000/svg" version="1.1" xmlns:xlink="http://www.w3.org/1999/xlink" xmlns:svgjs="http://svgjs.com/svgjs" width="1440" height="560" preserveAspectRatio="none" viewBox="0 0 1440 560"><g mask="url(&quot;#SvgjsMask1000&quot;)" fill="none"><rect width="1440" height="560" x="0" y="0" fill="#0e2a47"></rect><path d="M-104.69 351.75L-104.69 351.75" stroke="#132e65" stroke-width="1.5"></path><path d="M-104.69 351.75L54.61 394.88" stroke="#132e65" stroke-width="1.5"></path><path d="M-104.69 351.75L-51.84 559.77" stroke="#132e65" stroke-width="1.5"></path><path d="M-104.69 351.75L39.68 548.53" stroke="#132e65" stroke-width="1.5"></path><path d="M-51.84 559.77L-51.84 559.77" stroke="#132e65" stroke-width="1.5"></path><path d="M-51.84 559.77L39.68 548.53" stroke="#132e65" stroke-width="1.5"></path><path d="M-51.84 559.77L-45.15 685.51" stroke="#132e65" stroke-width="1.5"></path><path d="M-45.15 685.51L-45.15 685.51" stroke="#132e65" stroke-width="1.5"></path><path d="M-45.15 685.51L83.6 670.67" stroke="#132e65" stroke-width="1.5"></path><path d="M-45.15 685.51L39.68 548.53" stroke="#132e65" stroke-width="1.5"></path><path d="M-45.15 685.51L213.57 552.47" stroke="#132e65" stroke-width="1.5"></path><path d="M-45.15 685.51L257.66 687.4" stroke="#132e65" stroke-width="1.5"></path><path d="M54.61 394.88L54.61 394.88" stroke="#132e65" stroke-width="1.5"></path><path d="M54.61 394.88L39.68 548.53" stroke="#132e65" stroke-width="1.5"></path><path d="M54.61 394.88L203.25 342.88" stroke="#132e65" stroke-width="1.5"></path><path d="M54.61 394.88L-51.84 559.77" stroke="#132e65" stroke-width="1.5"></path><path d="M54.61 394.88L213.57 552.47" stroke="#132e65" stroke-width="1.5"></path><path d="M39.68 548.53L39.68 548.53" stroke="#132e65" stroke-width="1.5"></path><path d="M39.68 548.53L83.6 670.67" stroke="#132e65" stroke-width="1.5"></path><path d="M83.6 670.67L83.6 670.67" stroke="#132e65" stroke-width="1.5"></path><path d="M83.6 670.67L257.66 687.4" stroke="#132e65" stroke-width="1.5"></path><path d="M83.6 670.67L-51.84 559.77" stroke="#132e65" stroke-width="1.5"></path><path d="M83.6 670.67L213.57 552.47" stroke="#132e65" stroke-width="1.5"></path><path d="M83.6 670.67L54.61 394.88" stroke="#132e65" stroke-width="1.5"></path><path d="M203.25 342.88L203.25 342.88" stroke="#132e65" stroke-width="1.5"></path><path d="M213.57 552.47L213.57 552.47" stroke="#132e65" stroke-width="1.5"></path><path d="M213.57 552.47L257.66 687.4" stroke="#132e65" stroke-width="1.5"></path><path d="M213.57 552.47L39.68 548.53" stroke="#132e65" stroke-width="1.5"></path><path d="M213.57 552.47L402.55 494.3" stroke="#132e65" stroke-width="1.5"></path><path d="M213.57 552.47L397.9 640.82" stroke="#132e65" stroke-width="1.5"></path><path d="M257.66 687.4L257.66 687.4" stroke="#132e65" stroke-width="1.5"></path><path d="M257.66 687.4L397.9 640.82" stroke="#132e65" stroke-width="1.5"></path><path d="M257.66 687.4L496.17 650.77" stroke="#132e65" stroke-width="1.5"></path><path d="M395.99 356.66L395.99 356.66" stroke="#132e65" stroke-width="1.5"></path><path d="M395.99 356.66L402.55 494.3" stroke="#132e65" stroke-width="1.5"></path><path d="M395.99 356.66L203.25 342.88" stroke="#132e65" stroke-width="1.5"></path><path d="M402.55 494.3L402.55 494.3" stroke="#132e65" stroke-width="1.5"></path><path d="M402.55 494.3L511.58 525" stroke="#132e65" stroke-width="1.5"></path><path d="M402.55 494.3L397.9 640.82" stroke="#132e65" stroke-width="1.5"></path><path d="M397.9 640.82L397.9 640.82" stroke="#132e65" stroke-width="1.5"></path><path d="M397.9 640.82L496.17 650.77" stroke="#132e65" stroke-width="1.5"></path><path d="M511.58 525L511.58 525" stroke="#132e65" stroke-width="1.5"></path><path d="M511.58 525L496.17 650.77" stroke="#132e65" stroke-width="1.5"></path><path d="M511.58 525L397.9 640.82" stroke="#132e65" stroke-width="1.5"></path><path d="M511.58 525L395.99 356.66" stroke="#132e65" stroke-width="1.5"></path><path d="M511.58 525L646.54 684.57" stroke="#132e65" stroke-width="1.5"></path><path d="M496.17 650.77L496.17 650.77" stroke="#132e65" stroke-width="1.5"></path><path d="M496.17 650.77L646.54 684.57" stroke="#132e65" stroke-width="1.5"></path><path d="M496.17 650.77L402.55 494.3" stroke="#132e65" stroke-width="1.5"></path><path d="M659.83 257.25L659.83 257.25" stroke="#132e65" stroke-width="1.5"></path><path d="M659.83 257.25L710.48 363.73" stroke="#132e65" stroke-width="1.5"></path><path d="M659.83 257.25L830.89 261.43" stroke="#132e65" stroke-width="1.5"></path><path d="M710.48 363.73L710.48 363.73" stroke="#132e65" stroke-width="1.5"></path><path d="M710.48 363.73L843.68 395.08" stroke="#132e65" stroke-width="1.5"></path><path d="M710.48 363.73L830.89 261.43" stroke="#132e65" stroke-width="1.5"></path><path d="M710.48 363.73L789.1 551.69" stroke="#132e65" stroke-width="1.5"></path><path d="M710.48 363.73L511.58 525" stroke="#132e65" stroke-width="1.5"></path><path d="M710.48 363.73L982.68 343.8" stroke="#132e65" stroke-width="1.5"></path><path d="M646.54 684.57L646.54 684.57" stroke="#132e65" stroke-width="1.5"></path><path d="M646.54 684.57L789.1 551.69" stroke="#132e65" stroke-width="1.5"></path><path d="M646.54 684.57L847.29 692.33" stroke="#132e65" stroke-width="1.5"></path><path d="M646.54 684.57L397.9 640.82" stroke="#132e65" stroke-width="1.5"></path><path d="M646.54 684.57L402.55 494.3" stroke="#132e65" stroke-width="1.5"></path><path d="M830.89 261.43L830.89 261.43" stroke="#132e65" stroke-width="1.5"></path><path d="M830.89 261.43L843.68 395.08" stroke="#132e65" stroke-width="1.5"></path><path d="M830.89 261.43L977.35 208.49" stroke="#132e65" stroke-width="1.5"></path><path d="M843.68 395.08L843.68 395.08" stroke="#132e65" stroke-width="1.5"></path><path d="M843.68 395.08L982.68 343.8" stroke="#132e65" stroke-width="1.5"></path><path d="M843.68 395.08L789.1 551.69" stroke="#132e65" stroke-width="1.5"></path><path d="M789.1 551.69L789.1 551.69" stroke="#132e65" stroke-width="1.5"></path><path d="M789.1 551.69L847.29 692.33" stroke="#132e65" stroke-width="1.5"></path><path d="M789.1 551.69L972.27 509.94" stroke="#132e65" stroke-width="1.5"></path><path d="M847.29 692.33L847.29 692.33" stroke="#132e65" stroke-width="1.5"></path><path d="M847.29 692.33L967.67 677.97" stroke="#132e65" stroke-width="1.5"></path><path d="M847.29 692.33L972.27 509.94" stroke="#132e65" stroke-width="1.5"></path><path d="M1011.17 -71.8L1011.17 -71.8" stroke="#132e65" stroke-width="1.5"></path><path d="M1011.17 -71.8L1105.43 -84.57" stroke="#132e65" stroke-width="1.5"></path><path d="M1011.17 -71.8L984.58 110.4" stroke="#132e65" stroke-width="1.5"></path><path d="M1011.17 -71.8L1105.6 91.83" stroke="#132e65" stroke-width="1.5"></path><path d="M984.58 110.4L984.58 110.4" stroke="#132e65" stroke-width="1.5"></path><path d="M984.58 110.4L977.35 208.49" stroke="#132e65" stroke-width="1.5"></path><path d="M984.58 110.4L1105.6 91.83" stroke="#132e65" stroke-width="1.5"></path><path d="M977.35 208.49L977.35 208.49" stroke="#132e65" stroke-width="1.5"></path><path d="M977.35 208.49L982.68 343.8" stroke="#132e65" stroke-width="1.5"></path><path d="M982.68 343.8L982.68 343.8" stroke="#132e65" stroke-width="1.5"></path><path d="M982.68 343.8L1115.61 351.51" stroke="#132e65" stroke-width="1.5"></path><path d="M972.27 509.94L972.27 509.94" stroke="#132e65" stroke-width="1.5"></path><path d="M972.27 509.94L982.68 343.8" stroke="#132e65" stroke-width="1.5"></path><path d="M972.27 509.94L967.67 677.97" stroke="#132e65" stroke-width="1.5"></path><path d="M972.27 509.94L843.68 395.08" stroke="#132e65" stroke-width="1.5"></path><path d="M967.67 677.97L967.67 677.97" stroke="#132e65" stroke-width="1.5"></path><path d="M967.67 677.97L1143.25 639.85" stroke="#132e65" stroke-width="1.5"></path><path d="M967.67 677.97L789.1 551.69" stroke="#132e65" stroke-width="1.5"></path><path d="M967.67 677.97L843.68 395.08" stroke="#132e65" stroke-width="1.5"></path><path d="M1105.43 -84.57L1105.43 -84.57" stroke="#132e65" stroke-width="1.5"></path><path d="M1105.43 -84.57L1277.7 -112.39" stroke="#132e65" stroke-width="1.5"></path><path d="M1105.43 -84.57L1105.6 91.83" stroke="#132e65" stroke-width="1.5"></path><path d="M1105.6 91.83L1105.6 91.83" stroke="#132e65" stroke-width="1.5"></path><path d="M1105.6 91.83L977.35 208.49" stroke="#132e65" stroke-width="1.5"></path><path d="M1115.61 351.51L1115.61 351.51" stroke="#132e65" stroke-width="1.5"></path><path d="M1115.61 351.51L1252.34 254.32" stroke="#132e65" stroke-width="1.5"></path><path d="M1115.61 351.51L1307.17 367.82" stroke="#132e65" stroke-width="1.5"></path><path d="M1115.61 351.51L1249.06 496.97" stroke="#132e65" stroke-width="1.5"></path><path d="M1115.61 351.51L977.35 208.49" stroke="#132e65" stroke-width="1.5"></path><path d="M1143.25 639.85L1143.25 639.85" stroke="#132e65" stroke-width="1.5"></path><path d="M1143.25 639.85L1301.31 674.44" stroke="#132e65" stroke-width="1.5"></path><path d="M1143.25 639.85L1249.06 496.97" stroke="#132e65" stroke-width="1.5"></path><path d="M1143.25 639.85L972.27 509.94" stroke="#132e65" stroke-width="1.5"></path><path d="M1143.25 639.85L1115.61 351.51" stroke="#132e65" stroke-width="1.5"></path><path d="M1143.25 639.85L847.29 692.33" stroke="#132e65" stroke-width="1.5"></path><path d="M1277.7 -112.39L1277.7 -112.39" stroke="#132e65" stroke-width="1.5"></path><path d="M1277.7 -112.39L1390.24 -65.57" stroke="#132e65" stroke-width="1.5"></path><path d="M1277.7 -112.39L1287.45 49.93" stroke="#132e65" stroke-width="1.5"></path><path d="M1287.45 49.93L1287.45 49.93" stroke="#132e65" stroke-width="1.5"></path><path d="M1287.45 49.93L1436.32 57.33" stroke="#132e65" stroke-width="1.5"></path><path d="M1287.45 49.93L1390.24 -65.57" stroke="#132e65" stroke-width="1.5"></path><path d="M1252.34 254.32L1252.34 254.32" stroke="#132e65" stroke-width="1.5"></path><path d="M1252.34 254.32L1307.17 367.82" stroke="#132e65" stroke-width="1.5"></path><path d="M1252.34 254.32L1442.69 202.99" stroke="#132e65" stroke-width="1.5"></path><path d="M1252.34 254.32L1287.45 49.93" stroke="#132e65" stroke-width="1.5"></path><path d="M1252.34 254.32L1105.6 91.83" stroke="#132e65" stroke-width="1.5"></path><path d="M1307.17 367.82L1307.17 367.82" stroke="#132e65" stroke-width="1.5"></path><path d="M1307.17 367.82L1439.27 370.62" stroke="#132e65" stroke-width="1.5"></path><path d="M1307.17 367.82L1249.06 496.97" stroke="#132e65" stroke-width="1.5"></path><path d="M1249.06 496.97L1249.06 496.97" stroke="#132e65" stroke-width="1.5"></path><path d="M1301.31 674.44L1301.31 674.44" stroke="#132e65" stroke-width="1.5"></path><path d="M1301.31 674.44L1448.81 648.97" stroke="#132e65" stroke-width="1.5"></path><path d="M1301.31 674.44L1249.06 496.97" stroke="#132e65" stroke-width="1.5"></path><path d="M1390.24 -65.57L1390.24 -65.57" stroke="#132e65" stroke-width="1.5"></path><path d="M1390.24 -65.57L1436.32 57.33" stroke="#132e65" stroke-width="1.5"></path><path d="M1390.24 -65.57L1563.82 -69.25" stroke="#132e65" stroke-width="1.5"></path><path d="M1436.32 57.33L1436.32 57.33" stroke="#132e65" stroke-width="1.5"></path><path d="M1436.32 57.33L1549.54 89.44" stroke="#132e65" stroke-width="1.5"></path><path d="M1436.32 57.33L1442.69 202.99" stroke="#132e65" stroke-width="1.5"></path><path d="M1436.32 57.33L1563.82 -69.25" stroke="#132e65" stroke-width="1.5"></path><path d="M1436.32 57.33L1579.07 228.96" stroke="#132e65" stroke-width="1.5"></path><path d="M1442.69 202.99L1442.69 202.99" stroke="#132e65" stroke-width="1.5"></path><path d="M1442.69 202.99L1579.07 228.96" stroke="#132e65" stroke-width="1.5"></path><path d="M1439.27 370.62L1439.27 370.62" stroke="#132e65" stroke-width="1.5"></path><path d="M1439.27 370.62L1442.69 202.99" stroke="#132e65" stroke-width="1.5"></path><path d="M1439.27 370.62L1542.95 525.21" stroke="#132e65" stroke-width="1.5"></path><path d="M1460.5 562L1460.5 562" stroke="#132e65" stroke-width="1.5"></path><path d="M1460.5 562L1448.81 648.97" stroke="#132e65" stroke-width="1.5"></path><path d="M1460.5 562L1542.95 525.21" stroke="#132e65" stroke-width="1.5"></path><path d="M1460.5 562L1569.65 647.22" stroke="#132e65" stroke-width="1.5"></path><path d="M1460.5 562L1439.27 370.62" stroke="#132e65" stroke-width="1.5"></path><path d="M1460.5 562L1301.31 674.44" stroke="#132e65" stroke-width="1.5"></path><path d="M1460.5 562L1249.06 496.97" stroke="#132e65" stroke-width="1.5"></path><path d="M1448.81 648.97L1448.81 648.97" stroke="#132e65" stroke-width="1.5"></path><path d="M1448.81 648.97L1569.65 647.22" stroke="#132e65" stroke-width="1.5"></path><path d="M1563.82 -69.25L1563.82 -69.25" stroke="#132e65" stroke-width="1.5"></path><path d="M1563.82 -69.25L1549.54 89.44" stroke="#132e65" stroke-width="1.5"></path><path d="M1563.82 -69.25L1277.7 -112.39" stroke="#132e65" stroke-width="1.5"></path><path d="M1549.54 89.44L1549.54 89.44" stroke="#132e65" stroke-width="1.5"></path><path d="M1549.54 89.44L1579.07 228.96" stroke="#132e65" stroke-width="1.5"></path><path d="M1549.54 89.44L1442.69 202.99" stroke="#132e65" stroke-width="1.5"></path><path d="M1549.54 89.44L1390.24 -65.57" stroke="#132e65" stroke-width="1.5"></path><path d="M1549.54 89.44L1287.45 49.93" stroke="#132e65" stroke-width="1.5"></path><path d="M1579.07 228.96L1579.07 228.96" stroke="#132e65" stroke-width="1.5"></path><path d="M1579.07 228.96L1439.27 370.62" stroke="#132e65" stroke-width="1.5"></path><path d="M1542.95 525.21L1542.95 525.21" stroke="#132e65" stroke-width="1.5"></path><path d="M1542.95 525.21L1569.65 647.22" stroke="#132e65" stroke-width="1.5"></path><path d="M1542.95 525.21L1448.81 648.97" stroke="#132e65" stroke-width="1.5"></path><path d="M1542.95 525.21L1307.17 367.82" stroke="#132e65" stroke-width="1.5"></path><path d="M1569.65 647.22L1569.65 647.22" stroke="#132e65" stroke-width="1.5"></path><path d="M1569.65 647.22L1301.31 674.44" stroke="#132e65" stroke-width="1.5"></path><circle r="5" cx="-104.69" cy="351.75" fill="#132e65"></circle><circle r="5" cx="-51.84" cy="559.77" fill="#132e65"></circle><circle r="5" cx="-45.15" cy="685.51" fill="#132e65"></circle><circle r="5" cx="54.61" cy="394.88" fill="#132e65"></circle><circle r="5" cx="39.68" cy="548.53" fill="#132e65"></circle><circle r="5" cx="83.6" cy="670.67" fill="#132e65"></circle><circle r="5" cx="203.25" cy="342.88" fill="#132e65"></circle><circle r="5" cx="213.57" cy="552.47" fill="#132e65"></circle><circle r="5" cx="257.66" cy="687.4" fill="#132e65"></circle><circle r="5" cx="395.99" cy="356.66" fill="#132e65"></circle><circle r="5" cx="402.55" cy="494.3" fill="#132e65"></circle><circle r="5" cx="397.9" cy="640.82" fill="#132e65"></circle><circle r="5" cx="511.58" cy="525" fill="#132e65"></circle><circle r="5" cx="496.17" cy="650.77" fill="#132e65"></circle><circle r="5" cx="659.83" cy="257.25" fill="#132e65"></circle><circle r="5" cx="710.48" cy="363.73" fill="#132e65"></circle><circle r="5" cx="646.54" cy="684.57" fill="#132e65"></circle><circle r="5" cx="830.89" cy="261.43" fill="#132e65"></circle><circle r="5" cx="843.68" cy="395.08" fill="#132e65"></circle><circle r="5" cx="789.1" cy="551.69" fill="#132e65"></circle><circle r="5" cx="847.29" cy="692.33" fill="#132e65"></circle><circle r="5" cx="1011.17" cy="-71.8" fill="#132e65"></circle><circle r="5" cx="984.58" cy="110.4" fill="#132e65"></circle><circle r="5" cx="977.35" cy="208.49" fill="#132e65"></circle><circle r="5" cx="982.68" cy="343.8" fill="#132e65"></circle><circle r="5" cx="972.27" cy="509.94" fill="#132e65"></circle><circle r="5" cx="967.67" cy="677.97" fill="#132e65"></circle><circle r="5" cx="1105.43" cy="-84.57" fill="#132e65"></circle><circle r="5" cx="1105.6" cy="91.83" fill="#132e65"></circle><circle r="5" cx="1115.61" cy="351.51" fill="#132e65"></circle><circle r="5" cx="1143.25" cy="639.85" fill="#132e65"></circle><circle r="5" cx="1277.7" cy="-112.39" fill="#132e65"></circle><circle r="5" cx="1287.45" cy="49.93" fill="#132e65"></circle><circle r="5" cx="1252.34" cy="254.32" fill="#132e65"></circle><circle r="5" cx="1307.17" cy="367.82" fill="#132e65"></circle><circle r="5" cx="1249.06" cy="496.97" fill="#132e65"></circle><circle r="5" cx="1301.31" cy="674.44" fill="#132e65"></circle><circle r="5" cx="1390.24" cy="-65.57" fill="#132e65"></circle><circle r="5" cx="1436.32" cy="57.33" fill="#132e65"></circle><circle r="5" cx="1442.69" cy="202.99" fill="#132e65"></circle><circle r="5" cx="1439.27" cy="370.62" fill="#132e65"></circle><circle r="5" cx="1460.5" cy="562" fill="#132e65"></circle><circle r="5" cx="1448.81" cy="648.97" fill="#132e65"></circle><circle r="5" cx="1563.82" cy="-69.25" fill="#132e65"></circle><circle r="5" cx="1549.54" cy="89.44" fill="#132e65"></circle><circle r="5" cx="1579.07" cy="228.96" fill="#132e65"></circle><circle r="5" cx="1542.95" cy="525.21" fill="#132e65"></circle><circle r="5" cx="1569.65" cy="647.22" fill="#132e65"></circle><path d="M535.63 556.97L535.63 556.97" stroke="hsl(228.5, 77.2%, 51.5%)" stroke-width="1.5"></path><path d="M535.63 556.97L651.24 500.69" stroke="hsl(228.5, 77.2%, 51.5%)" stroke-width="1.5"></path><path d="M535.63 556.97L523.74 698.6" stroke="hsl(228.5, 77.2%, 51.5%)" stroke-width="1.5"></path><path d="M535.63 556.97L390.12 495.47" stroke="hsl(228.5, 77.2%, 51.5%)" stroke-width="1.5"></path><path d="M535.63 556.97L371.69 638.66" stroke="hsl(228.5, 77.2%, 51.5%)" stroke-width="1.5"></path><path d="M535.63 556.97L671.6 712.04" stroke="hsl(228.5, 77.2%, 51.5%)" stroke-width="1.5"></path><path d="M691.37 407.57L691.37 407.57" stroke="hsl(228.5, 77.2%, 51.5%)" stroke-width="1.5"></path><path d="M691.37 407.57L651.24 500.69" stroke="hsl(228.5, 77.2%, 51.5%)" stroke-width="1.5"></path><path d="M691.37 407.57L859.28 404.22" stroke="hsl(228.5, 77.2%, 51.5%)" stroke-width="1.5"></path><path d="M691.37 407.57L839.54 506.76" stroke="hsl(228.5, 77.2%, 51.5%)" stroke-width="1.5"></path><path d="M691.37 407.57L535.63 556.97" stroke="hsl(228.5, 77.2%, 51.5%)" stroke-width="1.5"></path><path d="M651.24 500.69L651.24 500.69" stroke="hsl(228.5, 77.2%, 51.5%)" stroke-width="1.5"></path><path d="M651.24 500.69L839.54 506.76" stroke="hsl(228.5, 77.2%, 51.5%)" stroke-width="1.5"></path><path d="M651.24 500.69L671.6 712.04" stroke="hsl(228.5, 77.2%, 51.5%)" stroke-width="1.5"></path><path d="M651.24 500.69L859.28 404.22" stroke="hsl(228.5, 77.2%, 51.5%)" stroke-width="1.5"></path><path d="M671.6 712.04L671.6 712.04" stroke="hsl(228.5, 77.2%, 51.5%)" stroke-width="1.5"></path><path d="M671.6 712.04L523.74 698.6" stroke="hsl(228.5, 77.2%, 51.5%)" stroke-width="1.5"></path><path d="M671.6 712.04L841.34 680.09" stroke="hsl(228.5, 77.2%, 51.5%)" stroke-width="1.5"></path><path d="M671.6 712.04L839.54 506.76" stroke="hsl(228.5, 77.2%, 51.5%)" stroke-width="1.5"></path><path d="M1307.72 489.11L1307.72 489.11" stroke="hsl(228.5, 77.2%, 51.5%)" stroke-width="1.5"></path><path d="M1307.72 489.11L1398.25 508.75" stroke="hsl(228.5, 77.2%, 51.5%)" stroke-width="1.5"></path><path d="M1307.72 489.11L1389.66 405.8" stroke="hsl(228.5, 77.2%, 51.5%)" stroke-width="1.5"></path><path d="M1307.72 489.11L1099.12 505.14" stroke="hsl(228.5, 77.2%, 51.5%)" stroke-width="1.5"></path><path d="M1307.72 489.11L1238.54 687" stroke="hsl(228.5, 77.2%, 51.5%)" stroke-width="1.5"></path><path d="M1307.72 489.11L1140.99 656.12" stroke="hsl(228.5, 77.2%, 51.5%)" stroke-width="1.5"></path><path d="M1387.96 -77.62L1387.96 -77.62" stroke="hsl(228.5, 77.2%, 51.5%)" stroke-width="1.5"></path><path d="M1387.96 -77.62L1288.86 -67.64" stroke="hsl(228.5, 77.2%, 51.5%)" stroke-width="1.5"></path><path d="M1387.96 -77.62L1556.73 -65.17" stroke="hsl(228.5, 77.2%, 51.5%)" stroke-width="1.5"></path><path d="M1387.96 -77.62L1387.65 108.97" stroke="hsl(228.5, 77.2%, 51.5%)" stroke-width="1.5"></path><path d="M-71.7 691.22L-71.7 691.22" stroke="hsl(228.5, 77.2%, 51.5%)" stroke-width="1.5"></path><path d="M-71.7 691.22L56.15 696" stroke="hsl(228.5, 77.2%, 51.5%)" stroke-width="1.5"></path><path d="M-71.7 691.22L39.22 541.61" stroke="hsl(228.5, 77.2%, 51.5%)" stroke-width="1.5"></path><path d="M39.22 541.61L39.22 541.61" stroke="hsl(228.5, 77.2%, 51.5%)" stroke-width="1.5"></path><path d="M39.22 541.61L56.15 696" stroke="hsl(228.5, 77.2%, 51.5%)" stroke-width="1.5"></path><path d="M39.22 541.61L255.58 552.31" stroke="hsl(228.5, 77.2%, 51.5%)" stroke-width="1.5"></path><path d="M39.22 541.61L215.04 707.44" stroke="hsl(228.5, 77.2%, 51.5%)" stroke-width="1.5"></path><path d="M39.22 541.61L371.69 638.66" stroke="hsl(228.5, 77.2%, 51.5%)" stroke-width="1.5"></path><path d="M56.15 696L56.15 696" stroke="hsl(228.5, 77.2%, 51.5%)" stroke-width="1.5"></path><path d="M56.15 696L215.04 707.44" stroke="hsl(228.5, 77.2%, 51.5%)" stroke-width="1.5"></path><path d="M56.15 696L255.58 552.31" stroke="hsl(228.5, 77.2%, 51.5%)" stroke-width="1.5"></path><path d="M56.15 696L371.69 638.66" stroke="hsl(228.5, 77.2%, 51.5%)" stroke-width="1.5"></path><path d="M56.15 696L390.12 495.47" stroke="hsl(228.5, 77.2%, 51.5%)" stroke-width="1.5"></path><path d="M255.58 552.31L255.58 552.31" stroke="hsl(228.5, 77.2%, 51.5%)" stroke-width="1.5"></path><path d="M255.58 552.31L371.69 638.66" stroke="hsl(228.5, 77.2%, 51.5%)" stroke-width="1.5"></path><path d="M255.58 552.31L390.12 495.47" stroke="hsl(228.5, 77.2%, 51.5%)" stroke-width="1.5"></path><path d="M255.58 552.31L215.04 707.44" stroke="hsl(228.5, 77.2%, 51.5%)" stroke-width="1.5"></path><path d="M215.04 707.44L215.04 707.44" stroke="hsl(228.5, 77.2%, 51.5%)" stroke-width="1.5"></path><path d="M390.12 495.47L390.12 495.47" stroke="hsl(228.5, 77.2%, 51.5%)" stroke-width="1.5"></path><path d="M390.12 495.47L371.69 638.66" stroke="hsl(228.5, 77.2%, 51.5%)" stroke-width="1.5"></path><path d="M390.12 495.47L523.74 698.6" stroke="hsl(228.5, 77.2%, 51.5%)" stroke-width="1.5"></path><path d="M390.12 495.47L651.24 500.69" stroke="hsl(228.5, 77.2%, 51.5%)" stroke-width="1.5"></path><path d="M371.69 638.66L371.69 638.66" stroke="hsl(228.5, 77.2%, 51.5%)" stroke-width="1.5"></path><path d="M371.69 638.66L523.74 698.6" stroke="hsl(228.5, 77.2%, 51.5%)" stroke-width="1.5"></path><path d="M371.69 638.66L215.04 707.44" stroke="hsl(228.5, 77.2%, 51.5%)" stroke-width="1.5"></path><path d="M371.69 638.66L671.6 712.04" stroke="hsl(228.5, 77.2%, 51.5%)" stroke-width="1.5"></path><path d="M523.74 698.6L523.74 698.6" stroke="hsl(228.5, 77.2%, 51.5%)" stroke-width="1.5"></path><path d="M859.28 404.22L859.28 404.22" stroke="hsl(228.5, 77.2%, 51.5%)" stroke-width="1.5"></path><path d="M859.28 404.22L839.54 506.76" stroke="hsl(228.5, 77.2%, 51.5%)" stroke-width="1.5"></path><path d="M859.28 404.22L1000.5 343.61" stroke="hsl(228.5, 77.2%, 51.5%)" stroke-width="1.5"></path><path d="M839.54 506.76L839.54 506.76" stroke="hsl(228.5, 77.2%, 51.5%)" stroke-width="1.5"></path><path d="M839.54 506.76L1005.97 544.22" stroke="hsl(228.5, 77.2%, 51.5%)" stroke-width="1.5"></path><path d="M841.34 680.09L841.34 680.09" stroke="hsl(228.5, 77.2%, 51.5%)" stroke-width="1.5"></path><path d="M841.34 680.09L959.81 705.81" stroke="hsl(228.5, 77.2%, 51.5%)" stroke-width="1.5"></path><path d="M1000.5 343.61L1000.5 343.61" stroke="hsl(228.5, 77.2%, 51.5%)" stroke-width="1.5"></path><path d="M1000.5 343.61L1100.56 338.38" stroke="hsl(228.5, 77.2%, 51.5%)" stroke-width="1.5"></path><path d="M1000.5 343.61L1119.76 262.29" stroke="hsl(228.5, 77.2%, 51.5%)" stroke-width="1.5"></path><path d="M1005.97 544.22L1005.97 544.22" stroke="hsl(228.5, 77.2%, 51.5%)" stroke-width="1.5"></path><path d="M1005.97 544.22L1099.12 505.14" stroke="hsl(228.5, 77.2%, 51.5%)" stroke-width="1.5"></path><path d="M1005.97 544.22L959.81 705.81" stroke="hsl(228.5, 77.2%, 51.5%)" stroke-width="1.5"></path><path d="M1005.97 544.22L1140.99 656.12" stroke="hsl(228.5, 77.2%, 51.5%)" stroke-width="1.5"></path><path d="M959.81 705.81L959.81 705.81" stroke="hsl(228.5, 77.2%, 51.5%)" stroke-width="1.5"></path><path d="M959.81 705.81L1140.99 656.12" stroke="hsl(228.5, 77.2%, 51.5%)" stroke-width="1.5"></path><path d="M959.81 705.81L839.54 506.76" stroke="hsl(228.5, 77.2%, 51.5%)" stroke-width="1.5"></path><path d="M959.81 705.81L1099.12 505.14" stroke="hsl(228.5, 77.2%, 51.5%)" stroke-width="1.5"></path><path d="M1157.1 57.96L1157.1 57.96" stroke="hsl(228.5, 77.2%, 51.5%)" stroke-width="1.5"></path><path d="M1157.1 57.96L1262.2 97.97" stroke="hsl(228.5, 77.2%, 51.5%)" stroke-width="1.5"></path><path d="M1157.1 57.96L1288.86 -67.64" stroke="hsl(228.5, 77.2%, 51.5%)" stroke-width="1.5"></path><path d="M1119.76 262.29L1119.76 262.29" stroke="hsl(228.5, 77.2%, 51.5%)" stroke-width="1.5"></path><path d="M1119.76 262.29L1100.56 338.38" stroke="hsl(228.5, 77.2%, 51.5%)" stroke-width="1.5"></path><path d="M1100.56 338.38L1100.56 338.38" stroke="hsl(228.5, 77.2%, 51.5%)" stroke-width="1.5"></path><path d="M1100.56 338.38L1099.12 505.14" stroke="hsl(228.5, 77.2%, 51.5%)" stroke-width="1.5"></path><path d="M1100.56 338.38L1287.27 226.99" stroke="hsl(228.5, 77.2%, 51.5%)" stroke-width="1.5"></path><path d="M1100.56 338.38L1005.97 544.22" stroke="hsl(228.5, 77.2%, 51.5%)" stroke-width="1.5"></path><path d="M1099.12 505.14L1099.12 505.14" stroke="hsl(228.5, 77.2%, 51.5%)" stroke-width="1.5"></path><path d="M1099.12 505.14L1140.99 656.12" stroke="hsl(228.5, 77.2%, 51.5%)" stroke-width="1.5"></path><path d="M1099.12 505.14L1000.5 343.61" stroke="hsl(228.5, 77.2%, 51.5%)" stroke-width="1.5"></path><path d="M1140.99 656.12L1140.99 656.12" stroke="hsl(228.5, 77.2%, 51.5%)" stroke-width="1.5"></path><path d="M1140.99 656.12L1238.54 687" stroke="hsl(228.5, 77.2%, 51.5%)" stroke-width="1.5"></path><path d="M1288.86 -67.64L1288.86 -67.64" stroke="hsl(228.5, 77.2%, 51.5%)" stroke-width="1.5"></path><path d="M1288.86 -67.64L1262.2 97.97" stroke="hsl(228.5, 77.2%, 51.5%)" stroke-width="1.5"></path><path d="M1288.86 -67.64L1387.65 108.97" stroke="hsl(228.5, 77.2%, 51.5%)" stroke-width="1.5"></path><path d="M1288.86 -67.64L1556.73 -65.17" stroke="hsl(228.5, 77.2%, 51.5%)" stroke-width="1.5"></path><path d="M1262.2 97.97L1262.2 97.97" stroke="hsl(228.5, 77.2%, 51.5%)" stroke-width="1.5"></path><path d="M1262.2 97.97L1387.65 108.97" stroke="hsl(228.5, 77.2%, 51.5%)" stroke-width="1.5"></path><path d="M1262.2 97.97L1287.27 226.99" stroke="hsl(228.5, 77.2%, 51.5%)" stroke-width="1.5"></path><path d="M1262.2 97.97L1387.96 -77.62" stroke="hsl(228.5, 77.2%, 51.5%)" stroke-width="1.5"></path><path d="M1287.27 226.99L1287.27 226.99" stroke="hsl(228.5, 77.2%, 51.5%)" stroke-width="1.5"></path><path d="M1287.27 226.99L1387.65 108.97" stroke="hsl(228.5, 77.2%, 51.5%)" stroke-width="1.5"></path><path d="M1287.27 226.99L1119.76 262.29" stroke="hsl(228.5, 77.2%, 51.5%)" stroke-width="1.5"></path><path d="M1287.27 226.99L1460.9 227.49" stroke="hsl(228.5, 77.2%, 51.5%)" stroke-width="1.5"></path><path d="M1287.27 226.99L1389.66 405.8" stroke="hsl(228.5, 77.2%, 51.5%)" stroke-width="1.5"></path><path d="M1238.54 687L1238.54 687" stroke="hsl(228.5, 77.2%, 51.5%)" stroke-width="1.5"></path><path d="M1238.54 687L1099.12 505.14" stroke="hsl(228.5, 77.2%, 51.5%)" stroke-width="1.5"></path><path d="M1238.54 687L1398.25 508.75" stroke="hsl(228.5, 77.2%, 51.5%)" stroke-width="1.5"></path><path d="M1387.65 108.97L1387.65 108.97" stroke="hsl(228.5, 77.2%, 51.5%)" stroke-width="1.5"></path><path d="M1460.9 227.49L1460.9 227.49" stroke="hsl(228.5, 77.2%, 51.5%)" stroke-width="1.5"></path><path d="M1460.9 227.49L1572.58 237.08" stroke="hsl(228.5, 77.2%, 51.5%)" stroke-width="1.5"></path><path d="M1460.9 227.49L1387.65 108.97" stroke="hsl(228.5, 77.2%, 51.5%)" stroke-width="1.5"></path><path d="M1460.9 227.49L1547.37 339.23" stroke="hsl(228.5, 77.2%, 51.5%)" stroke-width="1.5"></path><path d="M1460.9 227.49L1389.66 405.8" stroke="hsl(228.5, 77.2%, 51.5%)" stroke-width="1.5"></path><path d="M1460.9 227.49L1612.09 67.78" stroke="hsl(228.5, 77.2%, 51.5%)" stroke-width="1.5"></path><path d="M1389.66 405.8L1389.66 405.8" stroke="hsl(228.5, 77.2%, 51.5%)" stroke-width="1.5"></path><path d="M1389.66 405.8L1398.25 508.75" stroke="hsl(228.5, 77.2%, 51.5%)" stroke-width="1.5"></path><path d="M1389.66 405.8L1547.37 339.23" stroke="hsl(228.5, 77.2%, 51.5%)" stroke-width="1.5"></path><path d="M1398.25 508.75L1398.25 508.75" stroke="hsl(228.5, 77.2%, 51.5%)" stroke-width="1.5"></path><path d="M1398.25 508.75L1585.74 513.5" stroke="hsl(228.5, 77.2%, 51.5%)" stroke-width="1.5"></path><path d="M1398.25 508.75L1547.37 339.23" stroke="hsl(228.5, 77.2%, 51.5%)" stroke-width="1.5"></path><path d="M1398.25 508.75L1550.64 687.65" stroke="hsl(228.5, 77.2%, 51.5%)" stroke-width="1.5"></path><path d="M1556.73 -65.17L1556.73 -65.17" stroke="hsl(228.5, 77.2%, 51.5%)" stroke-width="1.5"></path><path d="M1556.73 -65.17L1612.09 67.78" stroke="hsl(228.5, 77.2%, 51.5%)" stroke-width="1.5"></path><path d="M1556.73 -65.17L1387.65 108.97" stroke="hsl(228.5, 77.2%, 51.5%)" stroke-width="1.5"></path><path d="M1556.73 -65.17L1572.58 237.08" stroke="hsl(228.5, 77.2%, 51.5%)" stroke-width="1.5"></path><path d="M1612.09 67.78L1612.09 67.78" stroke="hsl(228.5, 77.2%, 51.5%)" stroke-width="1.5"></path><path d="M1612.09 67.78L1572.58 237.08" stroke="hsl(228.5, 77.2%, 51.5%)" stroke-width="1.5"></path><path d="M1572.58 237.08L1572.58 237.08" stroke="hsl(228.5, 77.2%, 51.5%)" stroke-width="1.5"></path><path d="M1572.58 237.08L1547.37 339.23" stroke="hsl(228.5, 77.2%, 51.5%)" stroke-width="1.5"></path><path d="M1572.58 237.08L1387.65 108.97" stroke="hsl(228.5, 77.2%, 51.5%)" stroke-width="1.5"></path><path d="M1547.37 339.23L1547.37 339.23" stroke="hsl(228.5, 77.2%, 51.5%)" stroke-width="1.5"></path><path d="M1585.74 513.5L1585.74 513.5" stroke="hsl(228.5, 77.2%, 51.5%)" stroke-width="1.5"></path><path d="M1585.74 513.5L1550.64 687.65" stroke="hsl(228.5, 77.2%, 51.5%)" stroke-width="1.5"></path><path d="M1585.74 513.5L1547.37 339.23" stroke="hsl(228.5, 77.2%, 51.5%)" stroke-width="1.5"></path><path d="M1585.74 513.5L1389.66 405.8" stroke="hsl(228.5, 77.2%, 51.5%)" stroke-width="1.5"></path><path d="M1550.64 687.65L1550.64 687.65" stroke="hsl(228.5, 77.2%, 51.5%)" stroke-width="1.5"></path><path d="M1550.64 687.65L1238.54 687" stroke="hsl(228.5, 77.2%, 51.5%)" stroke-width="1.5"></path><path d="M1550.64 687.65L1307.72 489.11" stroke="hsl(228.5, 77.2%, 51.5%)" stroke-width="1.5"></path><path d="M1550.64 687.65L1389.66 405.8" stroke="hsl(228.5, 77.2%, 51.5%)" stroke-width="1.5"></path><circle r="25" cx="535.63" cy="556.97" fill="url(#SvgjsRadialGradient1001)"></circle><circle r="25" cx="691.37" cy="407.57" fill="url(#SvgjsRadialGradient1001)"></circle><circle r="25" cx="651.24" cy="500.69" fill="url(#SvgjsRadialGradient1001)"></circle><circle r="25" cx="671.6" cy="712.04" fill="url(#SvgjsRadialGradient1001)"></circle><circle r="25" cx="1307.72" cy="489.11" fill="url(#SvgjsRadialGradient1001)"></circle><circle r="25" cx="1387.96" cy="-77.62" fill="url(#SvgjsRadialGradient1001)"></circle><circle r="5" cx="-71.7" cy="691.22" fill="#8b9ad9"></circle><circle r="5" cx="39.22" cy="541.61" fill="#8b9ad9"></circle><circle r="5" cx="56.15" cy="696" fill="#8b9ad9"></circle><circle r="5" cx="255.58" cy="552.31" fill="#8b9ad9"></circle><circle r="5" cx="215.04" cy="707.44" fill="#8b9ad9"></circle><circle r="5" cx="390.12" cy="495.47" fill="#8b9ad9"></circle><circle r="5" cx="371.69" cy="638.66" fill="#8b9ad9"></circle><circle r="5" cx="523.74" cy="698.6" fill="#8b9ad9"></circle><circle r="5" cx="859.28" cy="404.22" fill="#8b9ad9"></circle><circle r="5" cx="839.54" cy="506.76" fill="#8b9ad9"></circle><circle r="5" cx="841.34" cy="680.09" fill="#8b9ad9"></circle><circle r="5" cx="1000.5" cy="343.61" fill="#8b9ad9"></circle><circle r="5" cx="1005.97" cy="544.22" fill="#8b9ad9"></circle><circle r="5" cx="959.81" cy="705.81" fill="#8b9ad9"></circle><circle r="5" cx="1157.1" cy="57.96" fill="#8b9ad9"></circle><circle r="5" cx="1119.76" cy="262.29" fill="#8b9ad9"></circle><circle r="5" cx="1100.56" cy="338.38" fill="#8b9ad9"></circle><circle r="5" cx="1099.12" cy="505.14" fill="#8b9ad9"></circle><circle r="5" cx="1140.99" cy="656.12" fill="#8b9ad9"></circle><circle r="5" cx="1288.86" cy="-67.64" fill="#8b9ad9"></circle><circle r="5" cx="1262.2" cy="97.97" fill="#8b9ad9"></circle><circle r="5" cx="1287.27" cy="226.99" fill="#8b9ad9"></circle><circle r="5" cx="1238.54" cy="687" fill="#8b9ad9"></circle><circle r="5" cx="1387.65" cy="108.97" fill="#8b9ad9"></circle><circle r="5" cx="1460.9" cy="227.49" fill="#8b9ad9"></circle><circle r="5" cx="1389.66" cy="405.8" fill="#8b9ad9"></circle><circle r="5" cx="1398.25" cy="508.75" fill="#8b9ad9"></circle><circle r="5" cx="1556.73" cy="-65.17" fill="#8b9ad9"></circle><circle r="5" cx="1612.09" cy="67.78" fill="#8b9ad9"></circle><circle r="5" cx="1572.58" cy="237.08" fill="#8b9ad9"></circle><circle r="5" cx="1547.37" cy="339.23" fill="#8b9ad9"></circle><circle r="5" cx="1585.74" cy="513.5" fill="#8b9ad9"></circle><circle r="5" cx="1550.64" cy="687.65" fill="#8b9ad9"></circle></g><defs><mask id="SvgjsMask1000"><rect width="1440" height="560" fill="#ffffff"></rect></mask><radialGradient id="SvgjsRadialGradient1001"><stop stop-color="#ffffff" offset="0.1"></stop><stop stop-color="#1735b3" offset="0.2"></stop><stop stop-color="rgba(23, 53, 179, 0)" offset="1"></stop></radialGradient></defs></svg>