<svg xmlns="http://www.w3.org/2000/svg" version="1.1" xmlns:xlink="http://www.w3.org/1999/xlink" xmlns:svgjs="http://svgjs.com/svgjs" width="1440" height="560" preserveAspectRatio="none" viewBox="0 0 1440 560"><g mask="url(&quot;#SvgjsMask1000&quot;)" fill="none"><rect width="1440" height="560" x="0" y="0" fill="#0e2a47"></rect><path d="M 0,22 C 57.6,67.8 172.8,242.4 288,251 C 403.2,259.6 460.8,85 576,65 C 691.2,45 748.8,153 864,151 C 979.2,149 1036.8,34 1152,55 C 1267.2,76 1382.4,215.8 1440,256L1440 560L0 560z" fill="#184a7e"></path><path d="M 0,427 C 96,414.2 288,355.8 480,363 C 672,370.2 768,470.8 960,463 C 1152,455.2 1344,351.8 1440,324L1440 560L0 560z" fill="#2264ab"></path></g><defs><mask id="SvgjsMask1000"><rect width="1440" height="560" fill="#ffffff"></rect></mask></defs></svg>